<mxfile host="app.diagrams.net" modified="2023-01-15T17:48:28.488Z" agent="5.0 (Macintosh; Intel Mac OS X 10_15_7) AppleWebKit/537.36 (KHTML, like Gecko) Chrome/108.0.0.0 Safari/537.36" etag="XYqH75_BUtk5KJfMXi9a" version="20.7.4" type="github">
  <diagram name="Page-1" id="c7558073-3199-34d8-9f00-42111426c3f3">
    <mxGraphModel dx="1444" dy="1975" grid="1" gridSize="10" guides="1" tooltips="1" connect="1" arrows="1" fold="1" page="1" pageScale="1" pageWidth="1150" pageHeight="400" background="#ffffff" math="1" shadow="0">
      <root>
        <mxCell id="0" />
        <mxCell id="1" parent="0" />
        <mxCell id="xXb-0AvfDkPHTkJj-rtv-294" value="" style="group;fontSize=8;" vertex="1" connectable="0" parent="1">
          <mxGeometry x="60" y="30" width="1080" height="330" as="geometry" />
        </mxCell>
        <mxCell id="6" value="&lt;p style=&quot;margin: 0px; margin-top: 4px; text-align: center; text-decoration: underline;&quot;&gt;&lt;/p&gt;&lt;font style=&quot;font-size: 10px;&quot;&gt;&lt;span style=&quot;font-weight: 400; text-align: left;&quot;&gt;&lt;i&gt;x&lt;/i&gt;:&lt;/span&gt;&lt;span style=&quot;font-weight: normal; background-color: initial;&quot;&gt;&amp;nbsp;&lt;/span&gt;&lt;span style=&quot;font-weight: normal; background-color: rgb(255, 255, 255);&quot;&gt;who is the actor that plays anakin skywalker&lt;/span&gt;&lt;/font&gt;&lt;span style=&quot;font-weight: 400; text-align: left;&quot;&gt;&lt;br&gt;&lt;/span&gt;" style="verticalAlign=middle;align=center;overflow=fill;fontSize=12;fontFamily=Times New Roman;html=1;rounded=1;fontStyle=1;strokeWidth=2;" parent="xXb-0AvfDkPHTkJj-rtv-294" vertex="1">
          <mxGeometry x="27.51592356687898" width="209.80891719745222" height="19.41176470588235" as="geometry" />
        </mxCell>
        <mxCell id="xXb-0AvfDkPHTkJj-rtv-110" value="&lt;p style=&quot;margin: 4px 0px 0px; font-size: 10px;&quot;&gt;&lt;span style=&quot;font-weight: normal;&quot;&gt;&lt;font style=&quot;font-size: 10px;&quot; face=&quot;Times New Roman&quot;&gt;&amp;nbsp; &amp;nbsp;Jake Matthew Lloyd&lt;/font&gt;&lt;/span&gt;&lt;/p&gt;&lt;hr style=&quot;font-size: 10px;&quot;&gt;&lt;p style=&quot;margin: 0px 0px 0px 8px; font-size: 10px;&quot;&gt;&lt;font style=&quot;font-size: 10px;&quot;&gt;&lt;font style=&quot;font-size: 10px;&quot; face=&quot;Times New Roman&quot;&gt;&lt;span style=&quot;font-weight: 400;&quot;&gt;Jake Lloyd Jake Matthew Lloyd (born March 5, 1989) is an American&amp;nbsp;&lt;/span&gt;&lt;/font&gt;&lt;/font&gt;&lt;/p&gt;&lt;p style=&quot;margin: 0px 0px 0px 8px; font-size: 10px;&quot;&gt;&lt;font style=&quot;font-size: 10px;&quot;&gt;&lt;span style=&quot;font-weight: 400; font-family: &amp;quot;Times New Roman&amp;quot;; background-color: initial;&quot;&gt;former actor who&amp;nbsp;&amp;nbsp;&lt;/span&gt;&lt;/font&gt;&lt;span style=&quot;background-color: initial; font-weight: 400; font-family: &amp;quot;Times New Roman&amp;quot;;&quot;&gt;played young&amp;nbsp;&lt;/span&gt;&lt;span style=&quot;background-color: initial; font-family: &amp;quot;Times New Roman&amp;quot;; font-weight: 400;&quot;&gt;Anakin Skywalker in the 1999 film. ...&lt;/span&gt;&lt;/p&gt;" style="verticalAlign=middle;align=left;overflow=fill;fontSize=12;fontFamily=Helvetica;html=1;rounded=1;fontStyle=1;strokeWidth=2;fillColor=#E6FFCC" vertex="1" parent="xXb-0AvfDkPHTkJj-rtv-294">
          <mxGeometry x="27.51592356687898" y="29.11764705882353" width="323.312101910828" height="67.94117647058823" as="geometry" />
        </mxCell>
        <mxCell id="xXb-0AvfDkPHTkJj-rtv-113" value="&lt;p style=&quot;margin: 0px; margin-top: 4px; text-align: center; text-decoration: underline;&quot;&gt;&lt;/p&gt;&lt;font style=&quot;font-size: 10px;&quot;&gt;&lt;span style=&quot;font-weight: 400; text-align: left;&quot;&gt;&lt;i&gt;y&lt;/i&gt;:&lt;/span&gt;&lt;span style=&quot;font-weight: normal; background-color: initial;&quot;&gt;&amp;nbsp;&lt;/span&gt;&lt;span style=&quot;background-color: rgb(255, 255, 255); font-weight: 400; text-align: left;&quot;&gt;Hayden Christensen&lt;/span&gt;&lt;/font&gt;" style="verticalAlign=middle;align=center;overflow=fill;fontSize=12;fontFamily=Times New Roman;html=1;rounded=1;fontStyle=1;strokeWidth=2;" vertex="1" parent="xXb-0AvfDkPHTkJj-rtv-294">
          <mxGeometry x="247.64331210191082" width="103.18471337579618" height="19.41176470588235" as="geometry" />
        </mxCell>
        <mxCell id="xXb-0AvfDkPHTkJj-rtv-128" value="&lt;p style=&quot;margin: 4px 0px 0px; font-size: 10px;&quot;&gt;&lt;font style=&quot;font-size: 10px;&quot; face=&quot;Times New Roman&quot;&gt;&amp;nbsp; &amp;nbsp;Hayden Christensen&lt;/font&gt;&lt;/p&gt;&lt;hr style=&quot;font-size: 10px;&quot;&gt;&lt;font style=&quot;font-size: 10px;&quot; face=&quot;Times New Roman&quot;&gt;&lt;span style=&quot;font-weight: 400;&quot;&gt;&amp;nbsp; &amp;nbsp;Hayden Christensen ... is a Canadian actor and producer. ... gained &lt;br&gt;&amp;nbsp; &amp;nbsp;international fame for his portrayal of Anakin Skywalker in&amp;nbsp; ...&lt;/span&gt;&lt;/font&gt;" style="verticalAlign=middle;align=left;overflow=fill;fontSize=12;fontFamily=Helvetica;html=1;rounded=1;fontStyle=1;strokeWidth=2;fillColor=#E6FFCC" vertex="1" parent="xXb-0AvfDkPHTkJj-rtv-294">
          <mxGeometry x="27.51592356687898" y="106.76470588235294" width="323.312101910828" height="67.94117647058823" as="geometry" />
        </mxCell>
        <mxCell id="xXb-0AvfDkPHTkJj-rtv-129" value="&lt;span style=&quot;font-size: 15px;&quot;&gt;P&lt;/span&gt;&lt;span style=&quot;font-size: 12.5px;&quot;&gt;&lt;sub&gt;2&lt;/sub&gt;&lt;/span&gt;" style="text;html=1;align=center;verticalAlign=middle;resizable=0;points=[];autosize=1;strokeColor=none;fillColor=none;fontSize=12;fontFamily=Times New Roman;" vertex="1" parent="xXb-0AvfDkPHTkJj-rtv-294">
          <mxGeometry x="-12.48" y="129.9964705882353" width="40" height="30" as="geometry" />
        </mxCell>
        <mxCell id="xXb-0AvfDkPHTkJj-rtv-130" value="&lt;p style=&quot;text-align: left; margin: 4px 0px 0px; font-size: 10px;&quot;&gt;&lt;span style=&quot;font-weight: normal;&quot;&gt;&lt;font style=&quot;font-size: 10px;&quot; face=&quot;Times New Roman&quot;&gt;&amp;nbsp; &amp;nbsp;Sebastian Shaw (actor)&lt;/font&gt;&lt;/span&gt;&lt;/p&gt;&lt;hr style=&quot;text-align: left; font-size: 10px;&quot;&gt;&lt;font style=&quot;&quot; face=&quot;Times New Roman&quot;&gt;&lt;div style=&quot;font-size: 10px; text-align: left;&quot;&gt;&lt;span style=&quot;font-weight: 400; background-color: initial;&quot;&gt;&amp;nbsp; &amp;nbsp;... in the &quot;Star Wars: franchise, in which he portrayed an unmasked and&lt;/span&gt;&lt;/div&gt;&lt;font style=&quot;font-size: 10px;&quot;&gt;&lt;div style=&quot;text-align: left;&quot;&gt;&lt;span style=&quot;font-weight: 400; background-color: initial;&quot;&gt;&amp;nbsp; redeemed Anakin&amp;nbsp;&lt;/span&gt;&lt;span style=&quot;background-color: initial; font-weight: 400;&quot;&gt;Skywalker (formerly Darth Vader), and his ghost&amp;nbsp; ...&lt;/span&gt;&lt;/div&gt;&lt;/font&gt;&lt;div style=&quot;text-align: left;&quot;&gt;&lt;span style=&quot;font-size: 10px;&quot;&gt;&lt;br&gt;&lt;/span&gt;&lt;/div&gt;&lt;/font&gt;" style="verticalAlign=middle;align=center;overflow=fill;fontSize=12;fontFamily=Helvetica;html=1;rounded=1;fontStyle=1;strokeWidth=2;fillColor=#E6FFCC" vertex="1" parent="xXb-0AvfDkPHTkJj-rtv-294">
          <mxGeometry x="27.51592356687898" y="184.41176470588235" width="323.312101910828" height="67.94117647058823" as="geometry" />
        </mxCell>
        <mxCell id="xXb-0AvfDkPHTkJj-rtv-131" value="&lt;span style=&quot;font-size: 15px;&quot;&gt;P&lt;/span&gt;&lt;span style=&quot;font-size: 10.4167px;&quot;&gt;&lt;sub&gt;3&lt;/sub&gt;&lt;/span&gt;" style="text;html=1;align=center;verticalAlign=middle;resizable=0;points=[];autosize=1;strokeColor=none;fillColor=none;fontSize=12;fontFamily=Times New Roman;" vertex="1" parent="xXb-0AvfDkPHTkJj-rtv-294">
          <mxGeometry x="-12.48" y="204.7035294117647" width="40" height="30" as="geometry" />
        </mxCell>
        <mxCell id="xXb-0AvfDkPHTkJj-rtv-132" value="&lt;p style=&quot;text-align: left; margin: 4px 0px 0px; font-size: 10px;&quot;&gt;&lt;span style=&quot;font-weight: normal;&quot;&gt;&lt;font style=&quot;font-size: 10px;&quot; face=&quot;Times New Roman&quot;&gt;&amp;nbsp; &amp;nbsp;Matt Lanter&amp;nbsp;&lt;/font&gt;&lt;/span&gt;&lt;/p&gt;&lt;hr style=&quot;text-align: left; font-size: 10px;&quot;&gt;&lt;font style=&quot;&quot; face=&quot;Times New Roman&quot;&gt;&lt;div style=&quot;font-size: 10px; text-align: left;&quot;&gt;&lt;span style=&quot;font-weight: 400; background-color: initial;&quot;&gt;&amp;nbsp; &amp;nbsp;Matt Lanter Matthew MacKendree Lanter ... is an American actor and&amp;nbsp;&lt;/span&gt;&lt;/div&gt;&lt;div style=&quot;font-size: 10px; text-align: left;&quot;&gt;&lt;span style=&quot;font-weight: 400; background-color: initial;&quot;&gt;&amp;nbsp; &amp;nbsp;models.&amp;nbsp; ...&amp;nbsp;&lt;/span&gt;&lt;span style=&quot;background-color: initial; font-weight: 400;&quot;&gt;He is the voice of Anakin Skywalker in&amp;nbsp; ...&lt;/span&gt;&lt;/div&gt;&lt;div style=&quot;text-align: left;&quot;&gt;&lt;span style=&quot;font-size: 10px;&quot;&gt;&lt;br&gt;&lt;/span&gt;&lt;/div&gt;&lt;/font&gt;" style="verticalAlign=middle;align=center;overflow=fill;fontSize=12;fontFamily=Helvetica;html=1;rounded=1;fontStyle=1;strokeWidth=2;fillColor=#E6FFCC" vertex="1" parent="xXb-0AvfDkPHTkJj-rtv-294">
          <mxGeometry x="27.51592356687898" y="262.05882352941177" width="323.312101910828" height="67.94117647058823" as="geometry" />
        </mxCell>
        <mxCell id="xXb-0AvfDkPHTkJj-rtv-133" value="&lt;span style=&quot;font-size: 15px;&quot;&gt;P&lt;/span&gt;&lt;span style=&quot;font-size: 8.68058px;&quot;&gt;&lt;sub&gt;4&lt;/sub&gt;&lt;/span&gt;" style="text;html=1;align=center;verticalAlign=middle;resizable=0;points=[];autosize=1;strokeColor=none;fillColor=none;fontSize=12;fontFamily=Times New Roman;" vertex="1" parent="xXb-0AvfDkPHTkJj-rtv-294">
          <mxGeometry x="-12.48" y="281.0305882352941" width="40" height="30" as="geometry" />
        </mxCell>
        <mxCell id="xXb-0AvfDkPHTkJj-rtv-136" value="X" style="rounded=1;whiteSpace=wrap;html=1;strokeWidth=2;fontFamily=Times New Roman;fontSize=15;" vertex="1" parent="xXb-0AvfDkPHTkJj-rtv-294">
          <mxGeometry x="371.4649681528662" y="29.11764705882353" width="41.273885350318466" height="29.11764705882353" as="geometry" />
        </mxCell>
        <mxCell id="xXb-0AvfDkPHTkJj-rtv-138" value="X" style="rounded=1;whiteSpace=wrap;html=1;strokeWidth=2;fontFamily=Times New Roman;fontSize=15;" vertex="1" parent="xXb-0AvfDkPHTkJj-rtv-294">
          <mxGeometry x="371.4649681528662" y="77.6470588235294" width="41.273885350318466" height="29.11764705882353" as="geometry" />
        </mxCell>
        <mxCell id="xXb-0AvfDkPHTkJj-rtv-139" value="X" style="rounded=1;whiteSpace=wrap;html=1;strokeWidth=2;fontFamily=Times New Roman;fontSize=15;" vertex="1" parent="xXb-0AvfDkPHTkJj-rtv-294">
          <mxGeometry x="371.4649681528662" y="126.17647058823529" width="41.273885350318466" height="29.11764705882353" as="geometry" />
        </mxCell>
        <mxCell id="xXb-0AvfDkPHTkJj-rtv-140" value="X" style="rounded=1;whiteSpace=wrap;html=1;strokeWidth=2;fontFamily=Times New Roman;fontSize=15;" vertex="1" parent="xXb-0AvfDkPHTkJj-rtv-294">
          <mxGeometry x="371.4649681528662" y="174.7058823529412" width="41.273885350318466" height="29.11764705882353" as="geometry" />
        </mxCell>
        <mxCell id="xXb-0AvfDkPHTkJj-rtv-141" value="P&lt;sub&gt;1&lt;/sub&gt;" style="rounded=1;whiteSpace=wrap;html=1;strokeWidth=2;fontFamily=Times New Roman;fontSize=15;" vertex="1" parent="xXb-0AvfDkPHTkJj-rtv-294">
          <mxGeometry x="412.7388535031847" y="29.11764705882353" width="41.273885350318466" height="29.11764705882353" as="geometry" />
        </mxCell>
        <mxCell id="xXb-0AvfDkPHTkJj-rtv-148" value="P&lt;sub&gt;1&lt;/sub&gt;" style="rounded=1;whiteSpace=wrap;html=1;strokeWidth=2;fontFamily=Times New Roman;fontSize=15;" vertex="1" parent="xXb-0AvfDkPHTkJj-rtv-294">
          <mxGeometry x="412.7388535031847" y="77.6470588235294" width="41.273885350318466" height="29.11764705882353" as="geometry" />
        </mxCell>
        <mxCell id="xXb-0AvfDkPHTkJj-rtv-149" value="P&lt;sub&gt;1&lt;/sub&gt;" style="rounded=1;whiteSpace=wrap;html=1;strokeWidth=2;fontFamily=Times New Roman;fontSize=15;" vertex="1" parent="xXb-0AvfDkPHTkJj-rtv-294">
          <mxGeometry x="412.7388535031847" y="126.17647058823529" width="41.273885350318466" height="29.11764705882353" as="geometry" />
        </mxCell>
        <mxCell id="xXb-0AvfDkPHTkJj-rtv-150" value="P&lt;sub&gt;1&lt;/sub&gt;" style="rounded=1;whiteSpace=wrap;html=1;strokeWidth=2;fontFamily=Times New Roman;fontSize=15;" vertex="1" parent="xXb-0AvfDkPHTkJj-rtv-294">
          <mxGeometry x="412.7388535031847" y="174.7058823529412" width="41.273885350318466" height="29.11764705882353" as="geometry" />
        </mxCell>
        <mxCell id="xXb-0AvfDkPHTkJj-rtv-151" value="P&lt;sub&gt;2&lt;/sub&gt;" style="rounded=1;whiteSpace=wrap;html=1;strokeWidth=2;fontFamily=Times New Roman;fontSize=15;" vertex="1" parent="xXb-0AvfDkPHTkJj-rtv-294">
          <mxGeometry x="454.01273885350315" y="77.6470588235294" width="41.273885350318466" height="29.11764705882353" as="geometry" />
        </mxCell>
        <mxCell id="xXb-0AvfDkPHTkJj-rtv-154" value="P&lt;sub&gt;2&lt;/sub&gt;" style="rounded=1;whiteSpace=wrap;html=1;strokeWidth=2;fontFamily=Times New Roman;fontSize=15;" vertex="1" parent="xXb-0AvfDkPHTkJj-rtv-294">
          <mxGeometry x="454.01273885350315" y="126.17647058823529" width="41.273885350318466" height="29.11764705882353" as="geometry" />
        </mxCell>
        <mxCell id="xXb-0AvfDkPHTkJj-rtv-155" value="P&lt;sub&gt;2&lt;/sub&gt;" style="rounded=1;whiteSpace=wrap;html=1;strokeWidth=2;fontFamily=Times New Roman;fontSize=15;" vertex="1" parent="xXb-0AvfDkPHTkJj-rtv-294">
          <mxGeometry x="454.01273885350315" y="174.7058823529412" width="41.273885350318466" height="29.11764705882353" as="geometry" />
        </mxCell>
        <mxCell id="xXb-0AvfDkPHTkJj-rtv-156" value="P&lt;span style=&quot;font-size: 12.5px;&quot;&gt;&lt;sub&gt;3&lt;/sub&gt;&lt;/span&gt;" style="rounded=1;whiteSpace=wrap;html=1;strokeWidth=2;fontFamily=Times New Roman;fontSize=15;" vertex="1" parent="xXb-0AvfDkPHTkJj-rtv-294">
          <mxGeometry x="495.28662420382165" y="126.17647058823529" width="41.273885350318466" height="29.11764705882353" as="geometry" />
        </mxCell>
        <mxCell id="xXb-0AvfDkPHTkJj-rtv-158" value="P&lt;span style=&quot;font-size: 12.5px;&quot;&gt;&lt;sub&gt;3&lt;/sub&gt;&lt;/span&gt;" style="rounded=1;whiteSpace=wrap;html=1;strokeWidth=2;fontFamily=Times New Roman;fontSize=15;" vertex="1" parent="xXb-0AvfDkPHTkJj-rtv-294">
          <mxGeometry x="495.28662420382165" y="174.7058823529412" width="41.273885350318466" height="29.11764705882353" as="geometry" />
        </mxCell>
        <mxCell id="xXb-0AvfDkPHTkJj-rtv-160" value="Fusion&amp;nbsp;&lt;br&gt;in&lt;br&gt;Decoder" style="rounded=0;whiteSpace=wrap;html=1;strokeWidth=2;fontFamily=Times New Roman;fontSize=15;labelBorderColor=#FFFFFF;fillColor=#dae8fc;strokeColor=#6c8ebf;" vertex="1" parent="xXb-0AvfDkPHTkJj-rtv-294">
          <mxGeometry x="591.592356687898" y="29.11764705882353" width="82.54777070063693" height="174.7058823529412" as="geometry" />
        </mxCell>
        <mxCell id="xXb-0AvfDkPHTkJj-rtv-161" value="" style="endArrow=classic;html=1;rounded=0;fontFamily=Times New Roman;fontSize=15;fontColor=#000000;" edge="1" parent="xXb-0AvfDkPHTkJj-rtv-294">
          <mxGeometry width="50" height="50" relative="1" as="geometry">
            <mxPoint x="674.140127388535" y="43.404705882352964" as="sourcePoint" />
            <mxPoint x="718.8535031847133" y="43.404705882352964" as="targetPoint" />
          </mxGeometry>
        </mxCell>
        <mxCell id="xXb-0AvfDkPHTkJj-rtv-162" value="" style="endArrow=classic;html=1;rounded=0;fontFamily=Times New Roman;fontSize=15;fontColor=#000000;" edge="1" parent="xXb-0AvfDkPHTkJj-rtv-294">
          <mxGeometry width="50" height="50" relative="1" as="geometry">
            <mxPoint x="674.140127388535" y="91.93411764705886" as="sourcePoint" />
            <mxPoint x="718.8535031847133" y="91.93411764705886" as="targetPoint" />
          </mxGeometry>
        </mxCell>
        <mxCell id="xXb-0AvfDkPHTkJj-rtv-163" value="" style="endArrow=classic;html=1;rounded=0;fontFamily=Times New Roman;fontSize=15;fontColor=#000000;" edge="1" parent="xXb-0AvfDkPHTkJj-rtv-294">
          <mxGeometry width="50" height="50" relative="1" as="geometry">
            <mxPoint x="674.140127388535" y="140.46352941176474" as="sourcePoint" />
            <mxPoint x="718.8535031847133" y="140.46352941176474" as="targetPoint" />
          </mxGeometry>
        </mxCell>
        <mxCell id="xXb-0AvfDkPHTkJj-rtv-164" value="" style="endArrow=classic;html=1;rounded=0;fontFamily=Times New Roman;fontSize=15;fontColor=#000000;" edge="1" parent="xXb-0AvfDkPHTkJj-rtv-294">
          <mxGeometry width="50" height="50" relative="1" as="geometry">
            <mxPoint x="674.140127388535" y="188.99294117647062" as="sourcePoint" />
            <mxPoint x="718.8535031847133" y="188.99294117647062" as="targetPoint" />
          </mxGeometry>
        </mxCell>
        <mxCell id="xXb-0AvfDkPHTkJj-rtv-165" value="&lt;font style=&quot;font-size: 12px;&quot;&gt;Jake Matthe Lloyd&lt;/font&gt;" style="text;html=1;strokeColor=none;fillColor=none;align=left;verticalAlign=middle;whiteSpace=wrap;rounded=0;labelBorderColor=#FFFFFF;strokeWidth=2;fontFamily=Times New Roman;fontSize=15;fontColor=#000000;" vertex="1" parent="xXb-0AvfDkPHTkJj-rtv-294">
          <mxGeometry x="725.732484076433" y="29.11764705882353" width="110.06369426751591" height="29.11764705882353" as="geometry" />
        </mxCell>
        <mxCell id="xXb-0AvfDkPHTkJj-rtv-166" value="&lt;font style=&quot;font-size: 12px;&quot;&gt;Hayden Christensen&lt;/font&gt;" style="text;html=1;strokeColor=none;fillColor=none;align=left;verticalAlign=middle;whiteSpace=wrap;rounded=0;labelBorderColor=#FFFFFF;strokeWidth=2;fontFamily=Times New Roman;fontSize=15;fontColor=#000000;" vertex="1" parent="xXb-0AvfDkPHTkJj-rtv-294">
          <mxGeometry x="725.732484076433" y="77.6470588235294" width="110.06369426751591" height="29.11764705882353" as="geometry" />
        </mxCell>
        <mxCell id="xXb-0AvfDkPHTkJj-rtv-167" value="&lt;font style=&quot;font-size: 12px;&quot;&gt;Hayden Christensen&lt;/font&gt;" style="text;html=1;strokeColor=none;fillColor=none;align=left;verticalAlign=middle;whiteSpace=wrap;rounded=0;labelBorderColor=#FFFFFF;strokeWidth=2;fontFamily=Times New Roman;fontSize=15;fontColor=#000000;" vertex="1" parent="xXb-0AvfDkPHTkJj-rtv-294">
          <mxGeometry x="725.732484076433" y="126.17647058823529" width="110.06369426751591" height="29.11764705882353" as="geometry" />
        </mxCell>
        <mxCell id="xXb-0AvfDkPHTkJj-rtv-168" value="&lt;font style=&quot;font-size: 12px;&quot;&gt;Matthew MacKendree Lanter&lt;/font&gt;" style="text;html=1;strokeColor=none;fillColor=none;align=left;verticalAlign=middle;whiteSpace=wrap;rounded=0;labelBorderColor=#FFFFFF;strokeWidth=2;fontFamily=Times New Roman;fontSize=15;fontColor=#000000;" vertex="1" parent="xXb-0AvfDkPHTkJj-rtv-294">
          <mxGeometry x="725.732484076433" y="174.7058823529412" width="130.70063694267515" height="29.11764705882353" as="geometry" />
        </mxCell>
        <mxCell id="xXb-0AvfDkPHTkJj-rtv-169" value="" style="endArrow=none;html=1;rounded=0;fontFamily=Times New Roman;fontSize=15;fontColor=#000000;" edge="1" parent="xXb-0AvfDkPHTkJj-rtv-294">
          <mxGeometry width="50" height="50" relative="1" as="geometry">
            <mxPoint x="454.01273885350315" y="43.6764705882353" as="sourcePoint" />
            <mxPoint x="591.592356687898" y="43.6764705882353" as="targetPoint" />
          </mxGeometry>
        </mxCell>
        <mxCell id="xXb-0AvfDkPHTkJj-rtv-170" value="" style="endArrow=none;html=1;rounded=0;fontFamily=Times New Roman;fontSize=15;fontColor=#000000;exitX=1;exitY=0.5;exitDx=0;exitDy=0;" edge="1" parent="xXb-0AvfDkPHTkJj-rtv-294" source="xXb-0AvfDkPHTkJj-rtv-151">
          <mxGeometry width="50" height="50" relative="1" as="geometry">
            <mxPoint x="497.0063694267516" y="91.66235294117647" as="sourcePoint" />
            <mxPoint x="591.592356687898" y="91.23529411764706" as="targetPoint" />
          </mxGeometry>
        </mxCell>
        <mxCell id="xXb-0AvfDkPHTkJj-rtv-171" value="" style="endArrow=none;html=1;rounded=0;fontFamily=Times New Roman;fontSize=15;fontColor=#000000;" edge="1" parent="xXb-0AvfDkPHTkJj-rtv-294">
          <mxGeometry width="50" height="50" relative="1" as="geometry">
            <mxPoint x="536.5605095541401" y="140.19176470588235" as="sourcePoint" />
            <mxPoint x="591.592356687898" y="139.76470588235293" as="targetPoint" />
          </mxGeometry>
        </mxCell>
        <mxCell id="xXb-0AvfDkPHTkJj-rtv-172" value="" style="endArrow=none;html=1;rounded=0;fontFamily=Times New Roman;fontSize=15;fontColor=#000000;exitX=1;exitY=0.5;exitDx=0;exitDy=0;entryX=-0.003;entryY=0.917;entryDx=0;entryDy=0;entryPerimeter=0;" edge="1" parent="xXb-0AvfDkPHTkJj-rtv-294" source="xXb-0AvfDkPHTkJj-rtv-193" target="xXb-0AvfDkPHTkJj-rtv-160">
          <mxGeometry width="50" height="50" relative="1" as="geometry">
            <mxPoint x="579.5541401273885" y="188.72117647058823" as="sourcePoint" />
            <mxPoint x="591.592356687898" y="188.72117647058823" as="targetPoint" />
          </mxGeometry>
        </mxCell>
        <mxCell id="xXb-0AvfDkPHTkJj-rtv-174" value="" style="shape=curlyBracket;whiteSpace=wrap;html=1;rounded=1;flipH=1;labelPosition=right;verticalLabelPosition=middle;align=left;verticalAlign=middle;labelBorderColor=#FFFFFF;strokeWidth=2;fontFamily=Times New Roman;fontSize=15;fontColor=#000000;fillColor=#E6FFCC;" vertex="1" parent="xXb-0AvfDkPHTkJj-rtv-294">
          <mxGeometry x="848.69" y="33.97" width="13.76" height="176.03" as="geometry" />
        </mxCell>
        <mxCell id="xXb-0AvfDkPHTkJj-rtv-176" value="&lt;b&gt;0&lt;/b&gt;" style="text;html=1;align=center;verticalAlign=middle;resizable=0;points=[];autosize=1;strokeColor=none;fillColor=none;fontSize=15;fontFamily=Times New Roman;fontColor=#000000;" vertex="1" parent="xXb-0AvfDkPHTkJj-rtv-294">
          <mxGeometry x="911.4649681528662" y="33.970588235294116" width="30" height="30" as="geometry" />
        </mxCell>
        <mxCell id="xXb-0AvfDkPHTkJj-rtv-177" value="&lt;b&gt;1&lt;/b&gt;" style="text;html=1;align=center;verticalAlign=middle;resizable=0;points=[];autosize=1;strokeColor=none;fillColor=none;fontSize=15;fontFamily=Times New Roman;fontColor=#000000;" vertex="1" parent="xXb-0AvfDkPHTkJj-rtv-294">
          <mxGeometry x="911.4649681528662" y="77.6470588235294" width="30" height="30" as="geometry" />
        </mxCell>
        <mxCell id="xXb-0AvfDkPHTkJj-rtv-178" value="&lt;b&gt;1&lt;/b&gt;" style="text;html=1;align=center;verticalAlign=middle;resizable=0;points=[];autosize=1;strokeColor=none;fillColor=none;fontSize=15;fontFamily=Times New Roman;fontColor=#000000;" vertex="1" parent="xXb-0AvfDkPHTkJj-rtv-294">
          <mxGeometry x="911.4649681528662" y="126.17647058823529" width="30" height="30" as="geometry" />
        </mxCell>
        <mxCell id="xXb-0AvfDkPHTkJj-rtv-179" value="&lt;b&gt;0&lt;/b&gt;" style="text;html=1;align=center;verticalAlign=middle;resizable=0;points=[];autosize=1;strokeColor=none;fillColor=none;fontSize=15;fontFamily=Times New Roman;fontColor=#000000;" vertex="1" parent="xXb-0AvfDkPHTkJj-rtv-294">
          <mxGeometry x="911.4649681528662" y="174.7058823529412" width="30" height="30" as="geometry" />
        </mxCell>
        <mxCell id="xXb-0AvfDkPHTkJj-rtv-182" value="&lt;b&gt;0&lt;/b&gt;" style="text;html=1;align=center;verticalAlign=middle;resizable=0;points=[];autosize=1;strokeColor=none;fillColor=none;fontSize=15;fontFamily=Times New Roman;fontColor=#000000;" vertex="1" parent="xXb-0AvfDkPHTkJj-rtv-294">
          <mxGeometry x="1007.7707006369426" y="33.970588235294116" width="30" height="30" as="geometry" />
        </mxCell>
        <mxCell id="xXb-0AvfDkPHTkJj-rtv-183" value="&lt;b&gt;1&lt;/b&gt;" style="text;html=1;align=center;verticalAlign=middle;resizable=0;points=[];autosize=1;strokeColor=none;fillColor=none;fontSize=15;fontFamily=Times New Roman;fontColor=#000000;" vertex="1" parent="xXb-0AvfDkPHTkJj-rtv-294">
          <mxGeometry x="1007.7707006369426" y="77.6470588235294" width="30" height="30" as="geometry" />
        </mxCell>
        <mxCell id="xXb-0AvfDkPHTkJj-rtv-184" value="&lt;b&gt;1&lt;/b&gt;" style="text;html=1;align=center;verticalAlign=middle;resizable=0;points=[];autosize=1;strokeColor=none;fillColor=none;fontSize=15;fontFamily=Times New Roman;fontColor=#000000;" vertex="1" parent="xXb-0AvfDkPHTkJj-rtv-294">
          <mxGeometry x="1007.7707006369426" y="126.17647058823529" width="30" height="30" as="geometry" />
        </mxCell>
        <mxCell id="xXb-0AvfDkPHTkJj-rtv-185" value="&lt;b&gt;1&lt;/b&gt;" style="text;html=1;align=center;verticalAlign=middle;resizable=0;points=[];autosize=1;strokeColor=none;fillColor=none;fontSize=15;fontFamily=Times New Roman;fontColor=#000000;" vertex="1" parent="xXb-0AvfDkPHTkJj-rtv-294">
          <mxGeometry x="1007.7707006369426" y="174.7058823529412" width="30" height="30" as="geometry" />
        </mxCell>
        <mxCell id="xXb-0AvfDkPHTkJj-rtv-188" value="P&lt;sub&gt;1&lt;/sub&gt;" style="rounded=1;whiteSpace=wrap;html=1;strokeWidth=2;fontFamily=Times New Roman;fontSize=15;" vertex="1" parent="xXb-0AvfDkPHTkJj-rtv-294">
          <mxGeometry x="497.0063694267516" y="262.05882352941177" width="41.273885350318466" height="29.11764705882353" as="geometry" />
        </mxCell>
        <mxCell id="xXb-0AvfDkPHTkJj-rtv-189" value="P&lt;sub&gt;2&lt;/sub&gt;" style="rounded=1;whiteSpace=wrap;html=1;strokeWidth=2;fontFamily=Times New Roman;fontSize=15;" vertex="1" parent="xXb-0AvfDkPHTkJj-rtv-294">
          <mxGeometry x="538.28025477707" y="262.05882352941177" width="41.273885350318466" height="29.11764705882353" as="geometry" />
        </mxCell>
        <mxCell id="xXb-0AvfDkPHTkJj-rtv-190" value="P&lt;span style=&quot;font-size: 12.5px;&quot;&gt;&lt;sub&gt;3&lt;/sub&gt;&lt;/span&gt;" style="rounded=1;whiteSpace=wrap;html=1;strokeWidth=2;fontFamily=Times New Roman;fontSize=15;" vertex="1" parent="xXb-0AvfDkPHTkJj-rtv-294">
          <mxGeometry x="579.5541401273885" y="262.05882352941177" width="41.273885350318466" height="29.11764705882353" as="geometry" />
        </mxCell>
        <mxCell id="xXb-0AvfDkPHTkJj-rtv-191" value="P&lt;sub&gt;4&lt;/sub&gt;" style="rounded=1;whiteSpace=wrap;html=1;strokeWidth=2;fontFamily=Times New Roman;fontSize=15;" vertex="1" parent="xXb-0AvfDkPHTkJj-rtv-294">
          <mxGeometry x="620.828025477707" y="262.05882352941177" width="41.273885350318466" height="29.11764705882353" as="geometry" />
        </mxCell>
        <mxCell id="xXb-0AvfDkPHTkJj-rtv-192" value="" style="endArrow=classic;html=1;rounded=0;fontFamily=Times New Roman;fontSize=15;fontColor=#000000;" edge="1" parent="xXb-0AvfDkPHTkJj-rtv-294">
          <mxGeometry width="50" height="50" relative="1" as="geometry">
            <mxPoint x="664.6815286624203" y="276.2002941176471" as="sourcePoint" />
            <mxPoint x="709.3949044585987" y="276.2002941176471" as="targetPoint" />
          </mxGeometry>
        </mxCell>
        <mxCell id="xXb-0AvfDkPHTkJj-rtv-193" value="P&lt;sub&gt;4&lt;/sub&gt;" style="rounded=1;whiteSpace=wrap;html=1;strokeWidth=2;fontFamily=Times New Roman;fontSize=15;" vertex="1" parent="xXb-0AvfDkPHTkJj-rtv-294">
          <mxGeometry x="536.5605095541401" y="174.7058823529412" width="41.273885350318466" height="29.11764705882353" as="geometry" />
        </mxCell>
        <mxCell id="xXb-0AvfDkPHTkJj-rtv-194" value="0" style="rounded=1;whiteSpace=wrap;html=1;strokeWidth=2;fontFamily=Times New Roman;fontSize=15;" vertex="1" parent="xXb-0AvfDkPHTkJj-rtv-294">
          <mxGeometry x="711.1146496815286" y="262.05882352941177" width="41.273885350318466" height="29.11764705882353" as="geometry" />
        </mxCell>
        <mxCell id="xXb-0AvfDkPHTkJj-rtv-195" value="1" style="rounded=1;whiteSpace=wrap;html=1;strokeWidth=2;fontFamily=Times New Roman;fontSize=15;" vertex="1" parent="xXb-0AvfDkPHTkJj-rtv-294">
          <mxGeometry x="752.3885350318471" y="262.05882352941177" width="41.273885350318466" height="29.11764705882353" as="geometry" />
        </mxCell>
        <mxCell id="xXb-0AvfDkPHTkJj-rtv-196" value="1" style="rounded=1;whiteSpace=wrap;html=1;strokeWidth=2;fontFamily=Times New Roman;fontSize=15;" vertex="1" parent="xXb-0AvfDkPHTkJj-rtv-294">
          <mxGeometry x="793.6624203821656" y="262.05882352941177" width="41.273885350318466" height="29.11764705882353" as="geometry" />
        </mxCell>
        <mxCell id="xXb-0AvfDkPHTkJj-rtv-197" value="0" style="rounded=1;whiteSpace=wrap;html=1;strokeWidth=2;fontFamily=Times New Roman;fontSize=15;" vertex="1" parent="xXb-0AvfDkPHTkJj-rtv-294">
          <mxGeometry x="834.936305732484" y="262.05882352941177" width="41.273885350318466" height="29.11764705882353" as="geometry" />
        </mxCell>
        <mxCell id="xXb-0AvfDkPHTkJj-rtv-206" value="" style="edgeStyle=segmentEdgeStyle;endArrow=classic;html=1;curved=0;rounded=0;endSize=8;startSize=8;fontFamily=Times New Roman;fontSize=15;fontColor=#000000;" edge="1" parent="xXb-0AvfDkPHTkJj-rtv-294" source="xXb-0AvfDkPHTkJj-rtv-222">
          <mxGeometry x="-0.2" y="70" width="50" height="50" relative="1" as="geometry">
            <mxPoint x="1018.0891719745223" y="223.23529411764704" as="sourcePoint" />
            <mxPoint x="880.5095541401273" y="320.29411764705884" as="targetPoint" />
            <Array as="points">
              <mxPoint x="1018" y="320" />
            </Array>
            <mxPoint as="offset" />
          </mxGeometry>
        </mxCell>
        <mxCell id="xXb-0AvfDkPHTkJj-rtv-210" value="P&lt;sub&gt;1&lt;/sub&gt;" style="rounded=1;whiteSpace=wrap;html=1;strokeWidth=2;fontFamily=Times New Roman;fontSize=15;" vertex="1" parent="xXb-0AvfDkPHTkJj-rtv-294">
          <mxGeometry x="497.0063694267516" y="300.88235294117646" width="41.273885350318466" height="29.11764705882353" as="geometry" />
        </mxCell>
        <mxCell id="xXb-0AvfDkPHTkJj-rtv-211" value="P&lt;sub&gt;2&lt;/sub&gt;" style="rounded=1;whiteSpace=wrap;html=1;strokeWidth=2;fontFamily=Times New Roman;fontSize=15;" vertex="1" parent="xXb-0AvfDkPHTkJj-rtv-294">
          <mxGeometry x="538.28025477707" y="300.88235294117646" width="41.273885350318466" height="29.11764705882353" as="geometry" />
        </mxCell>
        <mxCell id="xXb-0AvfDkPHTkJj-rtv-212" value="P&lt;span style=&quot;font-size: 12.5px;&quot;&gt;&lt;sub&gt;3&lt;/sub&gt;&lt;/span&gt;" style="rounded=1;whiteSpace=wrap;html=1;strokeWidth=2;fontFamily=Times New Roman;fontSize=15;" vertex="1" parent="xXb-0AvfDkPHTkJj-rtv-294">
          <mxGeometry x="579.5541401273885" y="300.88235294117646" width="41.273885350318466" height="29.11764705882353" as="geometry" />
        </mxCell>
        <mxCell id="xXb-0AvfDkPHTkJj-rtv-213" value="P&lt;sub&gt;4&lt;/sub&gt;" style="rounded=1;whiteSpace=wrap;html=1;strokeWidth=2;fontFamily=Times New Roman;fontSize=15;" vertex="1" parent="xXb-0AvfDkPHTkJj-rtv-294">
          <mxGeometry x="620.8277707006368" y="300.88235294117646" width="41.273885350318466" height="29.11764705882353" as="geometry" />
        </mxCell>
        <mxCell id="xXb-0AvfDkPHTkJj-rtv-214" value="" style="endArrow=classic;html=1;rounded=0;fontFamily=Times New Roman;fontSize=15;fontColor=#000000;" edge="1" parent="xXb-0AvfDkPHTkJj-rtv-294">
          <mxGeometry width="50" height="50" relative="1" as="geometry">
            <mxPoint x="664.6815286624203" y="315.02382352941214" as="sourcePoint" />
            <mxPoint x="709.3949044585987" y="315.02382352941214" as="targetPoint" />
          </mxGeometry>
        </mxCell>
        <mxCell id="xXb-0AvfDkPHTkJj-rtv-215" value="0" style="rounded=1;whiteSpace=wrap;html=1;strokeWidth=2;fontFamily=Times New Roman;fontSize=15;" vertex="1" parent="xXb-0AvfDkPHTkJj-rtv-294">
          <mxGeometry x="711.1146496815286" y="300.88235294117646" width="41.273885350318466" height="29.11764705882353" as="geometry" />
        </mxCell>
        <mxCell id="xXb-0AvfDkPHTkJj-rtv-216" value="1" style="rounded=1;whiteSpace=wrap;html=1;strokeWidth=2;fontFamily=Times New Roman;fontSize=15;" vertex="1" parent="xXb-0AvfDkPHTkJj-rtv-294">
          <mxGeometry x="752.3885350318471" y="300.88235294117646" width="41.273885350318466" height="29.11764705882353" as="geometry" />
        </mxCell>
        <mxCell id="xXb-0AvfDkPHTkJj-rtv-217" value="1" style="rounded=1;whiteSpace=wrap;html=1;strokeWidth=2;fontFamily=Times New Roman;fontSize=15;" vertex="1" parent="xXb-0AvfDkPHTkJj-rtv-294">
          <mxGeometry x="793.6624203821656" y="300.88235294117646" width="41.273885350318466" height="29.11764705882353" as="geometry" />
        </mxCell>
        <mxCell id="xXb-0AvfDkPHTkJj-rtv-218" value="1" style="rounded=1;whiteSpace=wrap;html=1;strokeWidth=2;fontFamily=Times New Roman;fontSize=15;" vertex="1" parent="xXb-0AvfDkPHTkJj-rtv-294">
          <mxGeometry x="834.936305732484" y="300.88235294117646" width="41.273885350318466" height="29.11764705882353" as="geometry" />
        </mxCell>
        <mxCell id="xXb-0AvfDkPHTkJj-rtv-219" value="" style="edgeStyle=segmentEdgeStyle;endArrow=classic;html=1;curved=0;rounded=0;endSize=8;startSize=8;fontFamily=Times New Roman;fontSize=15;fontColor=#000000;exitX=0.5;exitY=1;exitDx=0;exitDy=0;" edge="1" parent="xXb-0AvfDkPHTkJj-rtv-294" source="xXb-0AvfDkPHTkJj-rtv-221">
          <mxGeometry x="-0.2" y="70" width="50" height="50" relative="1" as="geometry">
            <mxPoint x="921.7834394904459" y="223.23529411764704" as="sourcePoint" />
            <mxPoint x="880.5095541401273" y="281.4705882352941" as="targetPoint" />
            <Array as="points">
              <mxPoint x="925" y="282" />
            </Array>
            <mxPoint as="offset" />
          </mxGeometry>
        </mxCell>
        <mxCell id="xXb-0AvfDkPHTkJj-rtv-221" value="" style="rounded=1;whiteSpace=wrap;html=1;labelBorderColor=#FFFFFF;strokeWidth=2;fontFamily=Times New Roman;fontSize=15;fillColor=#f8cecc;strokeColor=#b85450;opacity=20;" vertex="1" parent="xXb-0AvfDkPHTkJj-rtv-294">
          <mxGeometry x="911.4654777070062" y="29.77764705882353" width="27.51592356687898" height="184.41176470588235" as="geometry" />
        </mxCell>
        <mxCell id="xXb-0AvfDkPHTkJj-rtv-222" value="" style="rounded=1;whiteSpace=wrap;html=1;labelBorderColor=#FFFFFF;strokeWidth=2;fontFamily=Times New Roman;fontSize=15;fillColor=#f8cecc;strokeColor=#b85450;opacity=20;" vertex="1" parent="xXb-0AvfDkPHTkJj-rtv-294">
          <mxGeometry x="1009.0112101910827" y="29.77764705882353" width="27.51592356687898" height="184.41176470588235" as="geometry" />
        </mxCell>
        <mxCell id="xXb-0AvfDkPHTkJj-rtv-300" value="Exact Match&lt;br&gt;Pattern" style="text;html=1;strokeColor=none;fillColor=none;align=center;verticalAlign=middle;whiteSpace=wrap;rounded=0;labelBorderColor=#FFFFFF;strokeWidth=2;fontFamily=Times New Roman;fontSize=15;fontColor=#000000;" vertex="1" parent="xXb-0AvfDkPHTkJj-rtv-294">
          <mxGeometry x="380.07000000000005" y="262.06" width="118.53" height="29.12" as="geometry" />
        </mxCell>
        <mxCell id="xXb-0AvfDkPHTkJj-rtv-301" value="Accumulated Exact Match" style="text;html=1;strokeColor=none;fillColor=none;align=center;verticalAlign=middle;whiteSpace=wrap;rounded=0;labelBorderColor=#FFFFFF;strokeWidth=2;fontFamily=Times New Roman;fontSize=15;fontColor=#000000;" vertex="1" parent="xXb-0AvfDkPHTkJj-rtv-294">
          <mxGeometry x="380.0673248407644" y="300.88" width="116.94267515923566" height="29.11764705882353" as="geometry" />
        </mxCell>
        <mxCell id="xXb-0AvfDkPHTkJj-rtv-125" value="&lt;span style=&quot;font-size: 15px;&quot;&gt;P&lt;sub&gt;1&lt;/sub&gt;&lt;/span&gt;" style="text;html=1;align=center;verticalAlign=middle;resizable=0;points=[];autosize=1;strokeColor=none;fillColor=none;fontSize=12;fontFamily=Times New Roman;" vertex="1" parent="1">
          <mxGeometry x="47.519999999999996" y="83.0864705882353" width="40" height="40" as="geometry" />
        </mxCell>
        <mxCell id="xXb-0AvfDkPHTkJj-rtv-175" value="Exact Match" style="text;html=1;strokeColor=none;fillColor=none;align=center;verticalAlign=middle;whiteSpace=wrap;rounded=0;labelBorderColor=#FFFFFF;strokeWidth=2;fontFamily=Times New Roman;fontSize=15;fontColor=#000000;" vertex="1" parent="1">
          <mxGeometry x="954.268535031847" y="20.29" width="68.78980891719745" height="29.11764705882353" as="geometry" />
        </mxCell>
        <mxCell id="xXb-0AvfDkPHTkJj-rtv-181" value="Accumulated Exact Match" style="text;html=1;strokeColor=none;fillColor=none;align=center;verticalAlign=middle;whiteSpace=wrap;rounded=0;labelBorderColor=#FFFFFF;strokeWidth=2;fontFamily=Times New Roman;fontSize=15;fontColor=#000000;" vertex="1" parent="1">
          <mxGeometry x="1023.0573248407643" y="20.29" width="116.94267515923566" height="29.11764705882353" as="geometry" />
        </mxCell>
      </root>
    </mxGraphModel>
  </diagram>
</mxfile>
